<?xml version="1.0" encoding="UTF-8"?> <svg xmlns="http://www.w3.org/2000/svg" viewBox="0 0 966 253.74"><defs><style>.cls-1{fill:#febc12;}</style></defs><title>Asset 1</title><g id="Layer_2" data-name="Layer 2"><g id="Layer_1-2" data-name="Layer 1"><path d="M362.07,128.18h-36.4v37.29H311.19V77.3h14.48v37.91h36.4V77.3h14.49v88.17H362.07Z"></path><path d="M452.51,106.77v58.7H438.78v-7.94a19,19,0,0,1-7.87,6.93A23,23,0,0,1,420.64,167a29.81,29.81,0,0,1-12.22-2.46,28.38,28.38,0,0,1-9.5-6.74,31.19,31.19,0,0,1-6.18-9.82,32.8,32.8,0,0,1,0-23.62,31.13,31.13,0,0,1,6.18-9.88,28.38,28.38,0,0,1,9.5-6.74,29.81,29.81,0,0,1,12.22-2.46,23,23,0,0,1,10.27,2.52,19,19,0,0,1,7.87,6.93v-7.94Zm-31.11,48a16.52,16.52,0,0,0,7.12-1.51,17,17,0,0,0,5.47-4,18,18,0,0,0,3.53-5.92,21.09,21.09,0,0,0,0-14.36A18,18,0,0,0,434,123a17,17,0,0,0-5.47-4,16.52,16.52,0,0,0-7.12-1.51,16.07,16.07,0,0,0-7.06,1.51,17.21,17.21,0,0,0-5.41,4,17.4,17.4,0,0,0-3.47,5.92,22.26,22.26,0,0,0,0,14.36,17.4,17.4,0,0,0,3.47,5.92,17.21,17.21,0,0,0,5.41,4A16.07,16.07,0,0,0,421.4,154.76Z"></path><path d="M482.11,114.71a18.9,18.9,0,0,1,7.87-6.93,23,23,0,0,1,10.27-2.52,29.73,29.73,0,0,1,12.21,2.46,28.32,28.32,0,0,1,9.51,6.74,30.93,30.93,0,0,1,6.17,9.88,32.66,32.66,0,0,1,0,23.62,31,31,0,0,1-6.17,9.82,28.32,28.32,0,0,1-9.51,6.74A29.73,29.73,0,0,1,500.25,167,23,23,0,0,1,490,164.46a18.9,18.9,0,0,1-7.87-6.93v38.35H468.38V106.77h13.73Zm17.38,2.77a16.75,16.75,0,0,0-7.24,1.51,16.86,16.86,0,0,0-8.94,10,22.08,22.08,0,0,0,0,14.36,16.86,16.86,0,0,0,8.94,9.95,16.75,16.75,0,0,0,7.24,1.51,16.06,16.06,0,0,0,7.05-1.51,17,17,0,0,0,8.88-9.95,22.08,22.08,0,0,0,0-14.36,17,17,0,0,0-8.88-10A16.06,16.06,0,0,0,499.49,117.48Z"></path><path d="M555.79,114.71a19,19,0,0,1,7.87-6.93,23,23,0,0,1,10.27-2.52,29.81,29.81,0,0,1,12.22,2.46,28.52,28.52,0,0,1,9.51,6.74,31.28,31.28,0,0,1,6.17,9.88,32.8,32.8,0,0,1,0,23.62,31.34,31.34,0,0,1-6.17,9.82,28.52,28.52,0,0,1-9.51,6.74A29.81,29.81,0,0,1,573.93,167a23,23,0,0,1-10.27-2.52,19,19,0,0,1-7.87-6.93v38.35H542.06V106.77h13.73Zm17.38,2.77a16.75,16.75,0,0,0-7.24,1.51,17.06,17.06,0,0,0-5.48,4,17.38,17.38,0,0,0-3.46,5.92,22.08,22.08,0,0,0,0,14.36,17.38,17.38,0,0,0,3.46,5.92,17.06,17.06,0,0,0,5.48,4,16.75,16.75,0,0,0,7.24,1.51,16.07,16.07,0,0,0,7.06-1.51,17.11,17.11,0,0,0,8.88-9.95,22.26,22.26,0,0,0,0-14.36,17.11,17.11,0,0,0-8.88-10A16.07,16.07,0,0,0,573.17,117.48Z"></path><path d="M642.2,197.27a37.64,37.64,0,0,1-10.9-1.51,24.55,24.55,0,0,1-8.63-4.54,21.08,21.08,0,0,1-5.73-7.55,26.63,26.63,0,0,1-2.2-10.59h13.85q.51,6.43,4.47,9.51a14.85,14.85,0,0,0,9.39,3.09,24.94,24.94,0,0,0,5.79-.63,10.53,10.53,0,0,0,4.54-2.27,11.08,11.08,0,0,0,3-4.28,18.39,18.39,0,0,0,1.07-6.8V157.28a18,18,0,0,1-7.69,7.24A25.26,25.26,0,0,1,637.66,167a24.37,24.37,0,0,1-10.77-2.14A17.61,17.61,0,0,1,620,159a20.54,20.54,0,0,1-3-7.3,51.55,51.55,0,0,1-.82-10.08V106.77H630v30.36a37.27,37.27,0,0,0,.63,7.05,16.34,16.34,0,0,0,2.08,5.61,10.61,10.61,0,0,0,3.9,3.71,12.22,12.22,0,0,0,6.11,1.39q7.18,0,10.64-5.1a22,22,0,0,0,3.47-12.66V106.77h13.73V171.7q0,12.72-7.31,19.27Q656.06,197.27,642.2,197.27Z"></path><path d="M721.4,89.64c-.93-.25-1.89-.46-2.9-.63a20.1,20.1,0,0,0-3.15-.25c-1.09,0-2.18,0-3.27.13a6.08,6.08,0,0,0-3,1,6.65,6.65,0,0,0-2.21,2.77A12.81,12.81,0,0,0,706,98v8.81H721.4v11.46H706v47.24H692.3V118.23H684V106.77h8.31v-7.3q0-8.44,2.33-13a17.18,17.18,0,0,1,5.67-6.8,16.11,16.11,0,0,1,7-2.65,53.64,53.64,0,0,1,6.17-.44,23.21,23.21,0,0,1,4.73.44,12.19,12.19,0,0,1,3.21,1.07Z"></path><path d="M757.42,167a31.65,31.65,0,0,1-12.72-2.46,28.8,28.8,0,0,1-9.7-6.74,30.46,30.46,0,0,1-6.23-9.82,32.66,32.66,0,0,1,0-23.62,30.4,30.4,0,0,1,6.23-9.88,28.8,28.8,0,0,1,9.7-6.74,31.65,31.65,0,0,1,12.72-2.46,32.08,32.08,0,0,1,12.78,2.46,29.34,29.34,0,0,1,9.83,6.74,30.09,30.09,0,0,1,6.3,9.88,32.8,32.8,0,0,1,0,23.62,30.15,30.15,0,0,1-6.3,9.82,29.34,29.34,0,0,1-9.83,6.74A32.08,32.08,0,0,1,757.42,167Zm0-12.22a16.49,16.49,0,0,0,7.12-1.51,17,17,0,0,0,5.47-4,18,18,0,0,0,3.53-5.92,21.09,21.09,0,0,0,0-14.36A18,18,0,0,0,770,123a17,17,0,0,0-5.47-4,16.49,16.49,0,0,0-7.12-1.51,16,16,0,0,0-7,1.51,17,17,0,0,0-8.88,10,22.08,22.08,0,0,0,0,14.36,17,17,0,0,0,8.88,9.95A16,16,0,0,0,757.42,154.76Z"></path><path d="M837.27,119.49a25.36,25.36,0,0,0-2.7-.5,24.89,24.89,0,0,0-2.71-.13q-8.82,0-13.48,5.11t-4.66,16.18v25.32H800v-58.7h13.73v9.45a15.07,15.07,0,0,1,2.83-3.84,21.5,21.5,0,0,1,4.29-3.28,22.86,22.86,0,0,1,5.29-2.26,20.4,20.4,0,0,1,5.73-.82,14.24,14.24,0,0,1,5.41.88Z"></path><path d="M887.66,128.18a12.61,12.61,0,0,0-3.72-7.74q-3.09-3-10.14-3a14.77,14.77,0,0,0-6.93,1.51,14.92,14.92,0,0,0-4.91,4.09,17.25,17.25,0,0,0-3,5.92,26.06,26.06,0,0,0-.94,7.12,26.71,26.71,0,0,0,.94,7.18,16.4,16.4,0,0,0,3,5.92,14.57,14.57,0,0,0,5.17,4,17.23,17.23,0,0,0,7.55,1.51q6,0,8.88-2.52a15,15,0,0,0,4.22-6.93h13.73a29.3,29.3,0,0,1-2.77,8.51,22.3,22.3,0,0,1-5.48,6.92,24.77,24.77,0,0,1-8.31,4.6A35.27,35.27,0,0,1,873.68,167,29.39,29.39,0,0,1,861,164.4a27.43,27.43,0,0,1-9.2-6.87,29.14,29.14,0,0,1-5.6-9.82,36.27,36.27,0,0,1,0-23.11,29,29,0,0,1,5.6-9.89,27.79,27.79,0,0,1,9.13-6.87,29,29,0,0,1,12.6-2.58,33.31,33.31,0,0,1,12.28,2,25.53,25.53,0,0,1,8.44,5.22,21.7,21.7,0,0,1,5,7.31,28.23,28.23,0,0,1,2.07,8.37Z"></path><path d="M923.43,140.28a25.88,25.88,0,0,0,1.13,5.92,13.51,13.51,0,0,0,2.71,4.85,12.55,12.55,0,0,0,4.72,3.27,18.84,18.84,0,0,0,7.18,1.2c4,0,6.8-.76,8.57-2.27a13.82,13.82,0,0,0,3.9-5.42H965.5a20.9,20.9,0,0,1-2.71,7.25,22.29,22.29,0,0,1-5.48,6.11,27.56,27.56,0,0,1-7.94,4.22,31.2,31.2,0,0,1-10.2,1.57,32.16,32.16,0,0,1-12.91-2.39,25.63,25.63,0,0,1-9.13-6.55,27.48,27.48,0,0,1-5.48-9.83,39.13,39.13,0,0,1-1.83-12.09,37.05,37.05,0,0,1,2-12.22,28.84,28.84,0,0,1,5.6-9.82,25.21,25.21,0,0,1,9.07-6.49,31,31,0,0,1,12.34-2.33,28,28,0,0,1,10.65,2,27,27,0,0,1,8.69,5.6A25.71,25.71,0,0,1,966,131.71c0,1,0,2.2-.06,3.59a38.4,38.4,0,0,1-.57,5Zm15-24.69a15.93,15.93,0,0,0-10.71,3.65q-4.29,3.66-4.28,10.83h29.22q0-6.79-4-10.64A14.14,14.14,0,0,0,938.42,115.59Z"></path><path class="cls-1" d="M253.74,126.87A126.87,126.87,0,1,1,126.87,0,126.87,126.87,0,0,1,253.74,126.87"></path><path d="M87.34,96.12a.31.31,0,0,0,0,.1,4.23,4.23,0,0,1-6.56,4,22.12,22.12,0,0,0-29.61,3.92,4.2,4.2,0,0,1-7.32-2.33c0-.34-.08-.68-.11-1a21.93,21.93,0,0,1,43.59-4.66"></path><path d="M166.53,96.12s0,.07,0,.1a4.24,4.24,0,0,0,6.56,4,22.12,22.12,0,0,1,29.61,3.92,4.2,4.2,0,0,0,7.33-2.33c0-.34.08-.68.1-1a21.92,21.92,0,0,0-43.58-4.66"></path><path d="M72.12,126.87A13.21,13.21,0,0,0,59.19,143a69.61,69.61,0,0,0,135.41,0,13.22,13.22,0,0,0-12.94-16.13Z"></path></g></g></svg> 